<svg width="32" height="32" viewBox="0 0 32 32" fill="none" xmlns="http://www.w3.org/2000/svg">
<g id="ic:outline-bookmarks">
<path id="Vector" d="M20 9.33337V26.6267L14.3867 24.2134L13.3333 23.76L12.28 24.2134L6.66667 26.6267V9.33337H20ZM25.3333 1.33337H11.9867C10.52 1.33337 9.33333 2.53337 9.33333 4.00004H22.6667C24.1333 4.00004 25.3333 5.20004 25.3333 6.66671V24L28 25.3334V4.00004C28 2.53337 26.8 1.33337 25.3333 1.33337ZM20 6.66671H6.66667C5.2 6.66671 4 7.86671 4 9.33337V30.6667L13.3333 26.6667L22.6667 30.6667V9.33337C22.6667 7.86671 21.4667 6.66671 20 6.66671Z" fill="black"/>
</g>
</svg>
