<svg width="32" height="32" viewBox="0 0 32 32" fill="none" xmlns="http://www.w3.org/2000/svg">
<g id="material-symbols:double-arrow-rounded">
<path id="Vector" d="M14.7334 16.0001L9.56674 8.76675C9.25563 8.3223 9.21696 7.86141 9.45074 7.38408C9.68452 6.90675 10.0787 6.66764 10.6334 6.66675C10.8556 6.66675 11.0667 6.71697 11.2667 6.81741C11.4667 6.91786 11.6223 7.05653 11.7334 7.23341L18.0001 16.0001L11.7334 24.7667C11.6223 24.9445 11.4667 25.0836 11.2667 25.1841C11.0667 25.2845 10.8556 25.3343 10.6334 25.3334C10.1001 25.3334 9.71119 25.0947 9.46674 24.6174C9.2223 24.1401 9.25563 23.6787 9.56674 23.2334L14.7334 16.0001ZM22.6667 16.0001L17.5001 8.76675C17.189 8.3223 17.1499 7.86141 17.3827 7.38408C17.6156 6.90675 18.0107 6.66764 18.5681 6.66675C18.7903 6.66675 19.0014 6.71697 19.2014 6.81741C19.4014 6.91786 19.557 7.05653 19.6681 7.23341L25.9334 16.0001L19.6667 24.7667C19.5556 24.9445 19.4001 25.0836 19.2001 25.1841C19.0001 25.2845 18.789 25.3343 18.5667 25.3334C18.0334 25.3334 17.6445 25.0947 17.4001 24.6174C17.1556 24.1401 17.189 23.6787 17.5001 23.2334L22.6667 16.0001Z" fill="black"/>
</g>
</svg>
